<?xml version="1.0" encoding="utf-8" ?>
<svg xmlns="http://www.w3.org/2000/svg" width="20"
    height="20" viewBox="0 0 20 20">
    <defs>
        <clipPath id="clipPath0587267428">
            <path d="M0 0L20 0L20 20L0 20L0 0Z" fill-rule="nonzero"
                transform="matrix(1 0 0 1 0 0)" />
        </clipPath>
    </defs>
    <g clip-path="url(#clipPath0587267428)">
        <path
            d="M14.375 7.5Q14.375 6.10151 13.8348 4.82485Q13.3128 3.59125 12.3608 2.63921Q11.4087 1.68716 10.1752 1.16519Q8.89849 0.625 7.5 0.625Q6.10151 0.625 4.82485 1.16519Q3.59125 1.68717 2.63921 2.63921Q1.68717 3.59125 1.16519 4.82485Q0.625 6.10151 0.625 7.5Q0.625 8.89849 1.16519 10.1752Q1.68716 11.4087 2.63921 12.3608Q3.59125 13.3128 4.82485 13.8348Q6.10151 14.375 7.5 14.375Q8.89849 14.375 10.1752 13.8348Q11.4087 13.3128 12.3608 12.3608Q13.3128 11.4087 13.8348 10.1752Q14.375 8.89849 14.375 7.5ZM15.625 7.5Q15.625 9.15206 14.986 10.6623Q14.3691 12.1203 13.2447 13.2447Q12.1203 14.3691 10.6623 14.986Q9.15206 15.625 7.5 15.625Q5.84794 15.625 4.33775 14.986Q2.8797 14.3691 1.75532 13.2447Q0.630949 12.1203 0.0140059 10.6623Q-0.625 9.15206 -0.625 7.5Q-0.625 5.84794 0.0140059 4.33775Q0.630949 2.8797 1.75532 1.75532Q2.8797 0.63095 4.33775 0.0140059Q5.84794 -0.625 7.5 -0.625Q9.15206 -0.625 10.6623 0.0140059Q12.1203 0.630949 13.2447 1.75532Q14.369 2.8797 14.986 4.33775Q15.625 5.84794 15.625 7.5Z"
            fill-rule="nonzero" transform="matrix(1 0 0 1 2.5 2.5)" fill="rgb(255, 255, 255)" />
        <path
            d="M3.125 -0.625C2.77982 -0.625 2.5 -0.345175 2.5 0L2.5 2.5L0 2.5C-0.345175 2.5 -0.625 2.77982 -0.625 3.125C-0.625 3.47018 -0.345175 3.75 0 3.75L2.5 3.75L2.5 6.25C2.5 6.59517 2.77982 6.875 3.125 6.875C3.47018 6.875 3.75 6.59517 3.75 6.25L3.75 3.75L6.25 3.75C6.59517 3.75 6.875 3.47018 6.875 3.125C6.875 2.77982 6.59517 2.5 6.25 2.5L3.75 2.5L3.75 0C3.75 -0.345175 3.47018 -0.625 3.125 -0.625Z"
            fill-rule="evenodd" transform="matrix(1 0 0 1 6.875 6.875)" fill="rgb(255, 255, 255)" />
    </g>
</svg>
