<?xml version="1.0" encoding="utf-8" ?>
<svg xmlns="http://www.w3.org/2000/svg" width="20" height="20" viewBox="0 0 20 20">
    <defs>
        <clipPath id="clipPath5379282248">
            <path d="M0 0L20 0L20 20L0 20L0 0Z" fill-rule="nonzero" transform="matrix(1 0 0 1 0 0)"/>
        </clipPath>
    </defs>
    <g clip-path="url(#clipPath5379282248)">
        <path d="M5.625 -0.625C5.27983 -0.625 5 -0.345175 5 0L5 5L0 5C-0.345175 5 -0.625 5.27983 -0.625 5.625C-0.625 5.97017 -0.345175 6.25 0 6.25L5 6.25L5 11.25C5 11.5952 5.27983 11.875 5.625 11.875C5.97017 11.875 6.25 11.5952 6.25 11.25L6.25 6.25L11.25 6.25C11.5952 6.25 11.875 5.97017 11.875 5.625C11.875 5.27983 11.5952 5 11.25 5L6.25 5L6.25 0C6.25 -0.345175 5.97017 -0.625 5.625 -0.625Z" fill-rule="evenodd" transform="matrix(1 0 0 1 4.375 4.375)" fill="rgb(255, 255, 255)"/>
    </g>
</svg>