<?xml version="1.0" encoding="utf-8" ?>
<svg xmlns="http://www.w3.org/2000/svg" xmlns:xlink="http://www.w3.org/1999/xlink" width="24" height="19.2" viewBox="0 0 24 19.2">
    <defs>
        <clipPath id="clipPath7507936097">
            <path d="M0 0L24 0L24 19.2L0 19.2L0 0Z" fill-rule="nonzero" transform="matrix(1 0 0 1 0 0)"/>
        </clipPath>
    </defs>
    <g clip-path="url(#clipPath7507936097)">
        <path d="M7.92 1.92C7.92 1.38981 7.68568 0.937258 7.21706 0.562355C6.74843 0.187452 6.18274 0 5.52 0C4.85726 0 4.29157 0.187452 3.82294 0.562355C3.35431 0.937258 3.12 1.38981 3.12 1.92C3.12 2.45019 3.35431 2.90274 3.82294 3.27765C4.29157 3.65255 4.85726 3.84 5.52 3.84C6.18274 3.84 6.74843 3.65255 7.21706 3.27765C7.68568 2.90274 7.92 2.45019 7.92 1.92ZM1.2 6.72C1.2 7.251 1.73625 7.68 2.4 7.68L5.61 7.68C5.98875 6.498 7.0575 5.535 8.4525 5.082C8.08875 4.902 7.6575 4.8 7.2 4.8L3.6 4.8C2.27625 4.8 1.2 5.661 1.2 6.72ZM18.51 7.68L21.6 7.68C22.2638 7.68 22.8 7.251 22.8 6.72C22.8 5.661 21.7238 4.8 20.4 4.8L16.8 4.8C16.3612 4.8 15.9488 4.893 15.5963 5.058C17.025 5.502 18.1237 6.477 18.51 7.68ZM14.67 5.832C14.4113 5.784 14.1375 5.76 13.86 5.76L10.26 5.76C9.94125 5.76 9.63375 5.793 9.34125 5.853C8.18625 6.096 7.25625 6.786 6.8625 7.68C6.73125 7.98 6.65625 8.304 6.65625 8.64C6.65625 9.171 7.1925 9.6 7.85625 9.6L16.2563 9.6C16.92 9.6 17.4563 9.171 17.4563 8.64C17.4563 8.304 17.385 7.98 17.25 7.68C16.845 6.759 15.87 6.054 14.6663 5.832L14.67 5.832ZM21.12 1.92C21.12 1.38981 20.8857 0.937258 20.4171 0.562355C19.9484 0.187452 19.3827 0 18.72 0C18.0573 0 17.4916 0.187452 17.0229 0.562355C16.5543 0.937258 16.32 1.38981 16.32 1.92C16.32 2.45019 16.5543 2.90274 17.0229 3.27765C17.4916 3.65255 18.0573 3.84 18.72 3.84C19.3827 3.84 19.9484 3.65255 20.4171 3.27765C20.8857 2.90274 21.12 2.45019 21.12 1.92ZM12.06 4.8C12.8884 4.8 13.5955 4.56569 14.1813 4.09706C14.7671 3.62843 15.06 3.06274 15.06 2.4C15.06 1.73726 14.7671 1.17157 14.1813 0.702944C13.5955 0.234315 12.8884 0 12.06 0C11.2316 0 10.5245 0.234315 9.93868 0.702944C9.35289 1.17157 9.06 1.73726 9.06 2.4C9.06 3.06274 9.35289 3.62843 9.93868 4.09706C10.5245 4.56569 11.2316 4.8 12.06 4.8ZM1.2 11.52C0.53625 11.52 0 11.949 0 12.48C0 13.011 0.53625 13.44 1.2 13.44L22.8 13.44C23.4638 13.44 24 13.011 24 12.48C24 11.949 23.4638 11.52 22.8 11.52L1.2 11.52Z" fill-rule="nonzero" transform="matrix(1 0 0 1 0 2.88)" fill="rgb(0, 102, 255)"/>
    </g>
</svg>