<?xml version="1.0" encoding="utf-8" ?>
<svg xmlns="http://www.w3.org/2000/svg" xmlns:xlink="http://www.w3.org/1999/xlink" width="24" height="21.3333" viewBox="0 0 24 21.3333">
    <defs>
        <clipPath id="clipPath9242332342">
            <path d="M0 0L24 0L24 21.3333L0 21.3333L0 0Z" fill-rule="nonzero" transform="matrix(1 0 0 1 0 0)"/>
        </clipPath>
    </defs>
    <g clip-path="url(#clipPath9242332342)">
        <path d="M16.6667 3.55556L16.6667 3.58148C16.4458 3.56667 16.225 3.55556 16 3.55556L10.6667 3.55556C9.97917 3.55556 9.3125 3.63333 8.675 3.77778C8.67083 3.7037 8.66667 3.62963 8.66667 3.55556C8.66667 1.59259 10.4583 0 12.6667 0C14.875 0 16.6667 1.59259 16.6667 3.55556ZM16 4.74074C16.1458 4.74074 16.2917 4.74444 16.4333 4.75185C16.6083 4.76296 16.7833 4.77778 16.9583 4.8C17.6917 4.04074 18.7833 3.55556 20 3.55556L20.4792 3.55556C20.9125 3.55556 21.2292 3.91852 21.125 4.29259L20.55 6.33704C21.2083 6.88519 21.7458 7.55185 22.1125 8.2963L22.6667 8.2963C23.4042 8.2963 24 8.82593 24 9.48148L24 13.037C24 13.6926 23.4042 14.2222 22.6667 14.2222L21.3333 14.2222C20.9542 14.6704 20.5042 15.0704 20 15.4074L20 17.7778C20 18.4333 19.4042 18.963 18.6667 18.963L17.3333 18.963C16.5958 18.963 16 18.4333 16 17.7778L16 16.5926L10.6667 16.5926L10.6667 17.7778C10.6667 18.4333 10.0708 18.963 9.33333 18.963L8 18.963C7.2625 18.963 6.66667 18.4333 6.66667 17.7778L6.66667 15.4074C5.2125 14.437 4.22083 12.9519 4.03333 11.2593L2.83333 11.2593C1.26667 11.2593 0 10.1333 0 8.74074C0 7.34815 1.26667 6.22222 2.83333 6.22222L3 6.22222C3.55417 6.22222 4 6.61852 4 7.11111C4 7.6037 3.55417 8 3 8L2.83333 8C2.375 8 2 8.33333 2 8.74074C2 9.14815 2.375 9.48148 2.83333 9.48148L4.13333 9.48148C4.6375 7.26667 6.5375 5.5 8.97917 4.93333C9.51667 4.80741 10.0833 4.74074 10.6667 4.74074L16 4.74074ZM18.6667 9.77778C18.6667 9.53232 18.569 9.3228 18.3738 9.14924C18.1785 8.97567 17.9428 8.88889 17.6667 8.88889C17.3905 8.88889 17.1548 8.97567 16.9596 9.14924C16.7643 9.3228 16.6667 9.53232 16.6667 9.77778C16.6667 10.0232 16.7643 10.2327 16.9596 10.4063C17.1548 10.5799 17.3905 10.6667 17.6667 10.6667C17.9428 10.6667 18.1785 10.5799 18.3738 10.4063C18.569 10.2327 18.6667 10.0232 18.6667 9.77778Z" fill-rule="nonzero" transform="matrix(1 0 0 1 0 1.18519)" fill="rgb(0, 102, 255)"/>
    </g>
</svg>