<?xml version="1.0" encoding="utf-8" ?>
<svg xmlns="http://www.w3.org/2000/svg" width="40"
    height="40" viewBox="0 0 40 40">
    <path
        d="M20 0C8.9543 0 0 8.9543 0 20L0 20.03C0 31.0757 8.92431 40 19.97 40L20 40C31.0457 40 40 31.0757 40 20.03L40 20C40 8.9543 31.0757 0 20.03 0L20 0Z"
        fill-rule="nonzero" transform="matrix(1 0 0 1 0 0)" fill="rgb(220, 252, 231)" />
    <defs>
        <clipPath id="clipPath4875354322">
            <path d="M0 0L20 0L20 20L0 20L0 0Z" fill-rule="nonzero"
                transform="matrix(1 0 0 1 10 10)" />
        </clipPath>
    </defs>
    <g clip-path="url(#clipPath4875354322)">
        <path
            d="M5.625 -0.9375C5.10724 -0.9375 4.6875 -0.517762 4.6875 0L4.6875 9.92418L0.662913 5.89959C0.296799 5.53347 -0.296799 5.53347 -0.662913 5.89959C-1.02903 6.2657 -1.02903 6.8593 -0.662913 7.22541L4.96209 12.8504Q5.02738 12.9157 5.10415 12.967Q5.18093 13.0183 5.26623 13.0536Q5.35154 13.089 5.4421 13.107Q5.53266 13.125 5.625 13.125Q5.71733 13.125 5.8079 13.107Q5.89846 13.089 5.98376 13.0536Q6.06907 13.0183 6.14585 12.967Q6.22262 12.9157 6.28791 12.8504L11.9129 7.22541C12.279 6.8593 12.279 6.2657 11.9129 5.89959C11.5468 5.53347 10.9532 5.53347 10.5871 5.89959L6.5625 9.92418L6.5625 0C6.5625 -0.517762 6.14276 -0.9375 5.625 -0.9375Z"
            fill-rule="evenodd" transform="matrix(1 0 0 1 14.375 13.9062)"
            fill="rgb(22, 163, 74)" />
    </g>
</svg>
