<?xml version="1.0" encoding="utf-8" ?>
<svg xmlns="http://www.w3.org/2000/svg" width="24" height="19.2" viewBox="0 0 24 19.2">
    <defs>
        <clipPath id="clipPath1510147193">
            <path d="M0 0L24 0L24 19.2L0 19.2L0 0Z" fill-rule="nonzero" transform="matrix(1 0 0 1 0 0)"/>
        </clipPath>
    </defs>
    <g clip-path="url(#clipPath1510147193)">
        <path d="M7.2 6.72C9.52125 6.72 11.4 5.217 11.4 3.36C11.4 1.503 9.52125 0 7.2 0C4.87875 0 3 1.503 3 3.36C3 5.217 4.87875 6.72 7.2 6.72ZM10.08 7.68L9.76875 7.68C8.98875 7.98 8.1225 8.16 7.2 8.16C6.2775 8.16 5.415 7.98 4.63125 7.68L4.32 7.68C1.935 7.68 0 9.228 0 11.136L0 12C0 12.795 0.80625 13.44 1.8 13.44L12.6 13.44C13.5938 13.44 14.4 12.795 14.4 12L14.4 11.136C14.4 9.228 12.465 7.68 10.08 7.68ZM18 6.72C19.9875 6.72 21.6 5.43 21.6 3.84C21.6 2.25 19.9875 0.96 18 0.96C16.0125 0.96 14.4 2.25 14.4 3.84C14.4 5.43 16.0125 6.72 18 6.72ZM19.8 7.68L19.6575 7.68C19.1363 7.824 18.585 7.92 18 7.92C17.415 7.92 16.8638 7.824 16.3425 7.68L16.2 7.68C15.435 7.68 14.73 7.857 14.1112 8.142C15.0262 8.931 15.6 9.978 15.6 11.136L15.6 12.288C15.6 12.354 15.5813 12.417 15.5775 12.48L22.2 12.48C23.1938 12.48 24 11.835 24 11.04C24 9.183 22.1213 7.68 19.8 7.68Z" fill-rule="nonzero" transform="matrix(1 0 0 1 0 2.88)" fill="rgb(45, 91, 255)"/>
    </g>
</svg>
