<?xml version="1.0" encoding="utf-8" ?>
<svg xmlns="http://www.w3.org/2000/svg" width="24" height="24" viewBox="0 0 24 24">
    <defs>
        <clipPath id="clipPath4039965697">
            <path d="M0 0L24 0L24 24L0 24L0 0Z" fill-rule="nonzero" transform="matrix(1 0 0 1 0 0)"/>
        </clipPath>
    </defs>
    <g clip-path="url(#clipPath4039965697)">
        <path d="M21.1172 3.92227L12.1172 0.172269C11.8403 0.0574229 11.5521 0 11.2523 0C10.9526 0 10.6643 0.0574229 10.3875 0.172269L1.3875 3.92227C0.548438 4.26914 0 5.08946 0 5.99883C0 15.3035 5.36719 21.7348 10.3828 23.8254C10.9359 24.0551 11.5594 24.0551 12.1125 23.8254C16.1297 22.152 22.5 16.3723 22.5 5.99883C22.5 5.08946 21.9516 4.26914 21.1172 3.92227ZM11.2547 20.9191L11.25 3.05977L19.4953 6.49571C19.3406 13.5926 15.6469 18.7348 11.2547 20.9191Z" fill-rule="nonzero" transform="matrix(1 0 0 1 0.75 0.00116878)" fill="rgb(43, 107, 230)"/>
    </g>
</svg>