<?xml version="1.0" encoding="utf-8" ?>
<svg xmlns="http://www.w3.org/2000/svg" xmlns:xlink="http://www.w3.org/1999/xlink" width="24" height="19.2" viewBox="0 0 24 19.2">
    <defs>
        <clipPath id="clipPath0519229016">
            <path d="M0 0L24 0L24 19.2L0 19.2L0 0Z" fill-rule="nonzero" transform="matrix(1 0 0 1 0 0)"/>
        </clipPath>
    </defs>
    <g clip-path="url(#clipPath0519229016)">
        <path d="M20.0625 1.22738C19.71 0.945377 19.71 0.489377 20.0625 0.210377C20.415 -0.0686235 20.985 -0.0716235 21.3338 0.210377L23.7338 2.13038C23.9025 2.26538 23.9963 2.44838 23.9963 2.64038C23.9963 2.83238 23.9025 3.01538 23.7338 3.15038L21.3338 5.07038C20.9813 5.35238 20.4113 5.35238 20.0625 5.07038C19.7137 4.78838 19.71 4.33238 20.0625 4.05338L20.925 3.36338L14.4 3.35738C13.9013 3.35738 13.5 3.03638 13.5 2.63738C13.5 2.23838 13.9013 1.91738 14.4 1.91738L20.9287 1.91738L20.0625 1.22738ZM3.9375 11.3074L3.075 11.9974L9.6 11.9974C10.0988 11.9974 10.5 12.3184 10.5 12.7174C10.5 13.1164 10.0988 13.4374 9.6 13.4374L3.07125 13.4374L3.93375 14.1274C4.28625 14.4094 4.28625 14.8654 3.93375 15.1444C3.58125 15.4234 3.01125 15.4264 2.6625 15.1444L0.2625 13.2274C0.09375 13.0924 0 12.9094 0 12.7174C0 12.5254 0.09375 12.3424 0.2625 12.2074L2.6625 10.2874C3.015 10.0054 3.585 10.0054 3.93375 10.2874C4.2825 10.5694 4.28625 11.0254 3.93375 11.3044L3.9375 11.3074ZM3.6 1.91738L12.6713 1.91738C12.5325 2.13338 12.45 2.37638 12.45 2.63738C12.45 3.49838 13.3237 4.19738 14.4 4.19738L18.8025 4.19738C18.6525 4.70738 18.825 5.26238 19.32 5.66138C20.0813 6.27038 21.315 6.27038 22.0763 5.66138L22.8 5.08238L22.8 11.5174C22.8 12.5764 21.7238 13.4374 20.4 13.4374L11.3288 13.4374C11.4675 13.2214 11.55 12.9784 11.55 12.7174C11.55 11.8564 10.6763 11.1574 9.6 11.1574L5.1975 11.1574C5.3475 10.6474 5.175 10.0924 4.68 9.69338C3.91875 9.08438 2.685 9.08438 1.92375 9.69338L1.2 10.2724L1.2 3.83738C1.2 2.77838 2.27625 1.91738 3.6 1.91738ZM6 3.83738L3.6 3.83738L3.6 5.75738C4.92375 5.75738 6 4.89638 6 3.83738ZM20.4 9.59738C19.0763 9.59738 18 10.4584 18 11.5174L20.4 11.5174L20.4 9.59738ZM12 10.5574C12.9941 10.5574 13.8426 10.2762 14.5456 9.71384C15.2485 9.15149 15.6 8.47267 15.6 7.67738C15.6 6.88209 15.2485 6.20326 14.5456 5.64091C13.8426 5.07855 12.9941 4.79738 12 4.79738C11.0059 4.79738 10.1574 5.07855 9.45442 5.64091C8.75147 6.20326 8.4 6.88209 8.4 7.67738C8.4 8.47267 8.75147 9.15149 9.45442 9.71384C10.1574 10.2762 11.0059 10.5574 12 10.5574Z" fill-rule="nonzero" transform="matrix(1 0 0 1 0 1.92263)" fill="rgb(0, 102, 255)"/>
    </g>
</svg>