<?xml version="1.0" encoding="utf-8" ?>
<svg xmlns="http://www.w3.org/2000/svg" width="24" height="21.3333" viewBox="0 0 24 21.3333">
    <defs>
        <clipPath id="clipPath4717176461">
            <path d="M0 0L24 0L24 21.3333L0 21.3333L0 0Z" fill-rule="nonzero" transform="matrix(1 0 0 1 0 0)"/>
        </clipPath>
    </defs>
    <g clip-path="url(#clipPath4717176461)">
        <path d="M22 0L2 0C0.895833 0 0 0.796296 0 1.77778L0 2.37037L24 2.37037L24 1.77778C24 0.796296 23.1042 0 22 0ZM0 14.8148C0 15.7963 0.895833 16.5926 2 16.5926L22 16.5926C23.1042 16.5926 24 15.7963 24 14.8148L24 3.55556L0 3.55556L0 14.8148ZM14.6667 6.22222C14.6667 6.05926 14.8167 5.92593 15 5.92593L21 5.92593C21.1833 5.92593 21.3333 6.05926 21.3333 6.22222L21.3333 6.81482C21.3333 6.97778 21.1833 7.11111 21 7.11111L15 7.11111C14.8167 7.11111 14.6667 6.97778 14.6667 6.81482L14.6667 6.22222ZM14.6667 8.59259C14.6667 8.42963 14.8167 8.2963 15 8.2963L21 8.2963C21.1833 8.2963 21.3333 8.42963 21.3333 8.59259L21.3333 9.18519C21.3333 9.34815 21.1833 9.48148 21 9.48148L15 9.48148C14.8167 9.48148 14.6667 9.34815 14.6667 9.18519L14.6667 8.59259ZM14.6667 10.963C14.6667 10.8 14.8167 10.6667 15 10.6667L21 10.6667C21.1833 10.6667 21.3333 10.8 21.3333 10.963L21.3333 11.5556C21.3333 11.7185 21.1833 11.8519 21 11.8519L15 11.8519C14.8167 11.8519 14.6667 11.7185 14.6667 11.5556L14.6667 10.963ZM7.33333 5.92593C8.80417 5.92593 10 6.98889 10 8.2963C10 9.6037 8.80417 10.6667 7.33333 10.6667C5.8625 10.6667 4.66667 9.6037 4.66667 8.2963C4.66667 6.98889 5.8625 5.92593 7.33333 5.92593ZM2.79583 13.4889C3.14583 12.537 4.15 11.8519 5.33333 11.8519L5.675 11.8519C6.1875 12.0407 6.74583 12.1481 7.33333 12.1481C7.92083 12.1481 8.48333 12.0407 8.99167 11.8519L9.33333 11.8519C10.5167 11.8519 11.5208 12.537 11.8708 13.4889C12.0042 13.8556 11.6542 14.2222 11.2208 14.2222L3.44583 14.2222C3.0125 14.2222 2.6625 13.8519 2.79583 13.4889Z" fill-rule="nonzero" transform="matrix(1 0 0 1 0 2.37039)" fill="rgb(43, 107, 230)"/>
    </g>
</svg>