<?xml version="1.0" encoding="utf-8" ?>
<svg xmlns="http://www.w3.org/2000/svg" xmlns:xlink="http://www.w3.org/1999/xlink" width="24" height="21.3333" viewBox="0 0 24 21.3333">
    <defs>
        <clipPath id="clipPath3579686420">
            <path d="M0 0L24 0L24 21.3333L0 21.3333L0 0Z" fill-rule="nonzero" transform="matrix(1 0 0 1 0 0)"/>
        </clipPath>
    </defs>
    <g clip-path="url(#clipPath3579686420)">
        <path d="M13 0.888889L13 1.27778C13.2667 1.32222 13.525 1.37778 13.7583 1.43333C14.2917 1.55926 14.6083 2.04815 14.4667 2.52222C14.325 2.9963 13.775 3.27778 13.2417 3.15185C12.7875 3.04444 12.3625 2.97037 11.9833 2.96667C11.6792 2.96296 11.3708 3.02963 11.175 3.12963C11.0875 3.17778 11.0458 3.21852 11.0292 3.24074C11.0167 3.25926 11 3.28519 11 3.34444L11 3.36667C11.0083 3.37407 11.0375 3.41111 11.1375 3.46296C11.3792 3.59259 11.7375 3.69259 12.2792 3.83704L12.3167 3.84815C12.7792 3.97037 13.3958 4.13704 13.8958 4.41481C14.4667 4.73333 14.9833 5.26296 14.9958 6.07778C15.0083 6.91111 14.5208 7.51852 13.8833 7.87407C13.6042 8.02593 13.3042 8.13333 12.9958 8.2L12.9958 8.59259C12.9958 9.08519 12.55 9.48148 11.9958 9.48148C11.4417 9.48148 10.9958 9.08519 10.9958 8.59259L10.9958 8.17037C10.6 8.08519 10.2375 7.97407 9.92916 7.88148C9.84166 7.85556 9.75833 7.82963 9.67916 7.80741C9.15416 7.65185 8.87083 7.14815 9.04583 6.68148C9.22083 6.21482 9.7875 5.96296 10.3125 6.11852C10.4208 6.15185 10.5208 6.18148 10.6167 6.21111C11.1833 6.38148 11.5917 6.5037 12.0292 6.51852C12.3625 6.52963 12.6583 6.45926 12.8292 6.36667C12.9083 6.32222 12.9458 6.28519 12.9625 6.25926C12.9792 6.23704 13 6.19259 12.9958 6.10741L12.9958 6.1C12.9958 6.06296 12.9958 6.02222 12.8292 5.92963C12.5917 5.7963 12.2333 5.69259 11.7 5.54815L11.6208 5.52593C11.1708 5.40741 10.5792 5.24815 10.1042 4.99259C9.54167 4.69259 9 4.17778 8.99583 3.35926C8.99167 2.51111 9.53333 1.92963 10.15 1.6037C10.4167 1.46296 10.7042 1.36667 10.9917 1.3L10.9917 0.888889C10.9917 0.396296 11.4375 0 11.9917 0C12.5458 0 12.9917 0.396296 12.9917 0.888889L13 0.888889ZM23.675 12.4556C24.2208 13.1148 24.0625 14.0407 23.3208 14.5259L18.0458 17.9815C17.0708 18.6185 15.8958 18.963 14.6833 18.963L8 18.963L1.33333 18.963C0.595833 18.963 0 18.4333 0 17.7778L0 15.4074C0 14.7519 0.595833 14.2222 1.33333 14.2222L2.86667 14.2222L4.7375 12.8889C5.68333 12.2148 6.85833 11.8519 8.07083 11.8519L11.3333 11.8519L12 11.8519L14.6667 11.8519C15.4042 11.8519 16 12.3815 16 13.037C16 13.6926 15.4042 14.2222 14.6667 14.2222L12 14.2222L11.3333 14.2222C10.9667 14.2222 10.6667 14.4889 10.6667 14.8148C10.6667 15.1407 10.9667 15.4074 11.3333 15.4074L16.3583 15.4074L21.3458 12.1407C22.0875 11.6556 23.1292 11.7963 23.675 12.4556ZM8.02917 14.2222L8.06667 14.2222L8.02917 14.2222Z" fill-rule="nonzero" transform="matrix(1 0 0 1 0 1.18519)" fill="rgb(0, 102, 255)"/>
    </g>
</svg>