<?xml version="1.0" encoding="utf-8" ?>
<svg xmlns="http://www.w3.org/2000/svg" width="40" height="40" viewBox="0 0 40 40">
    <rect width="40" height="40" rx="8" ry="8" transform="matrix(1 0 0 1 0 0)"
        fill="rgb(37, 99, 235)" />
    <defs>
        <clipPath id="clipPath3303391555">
            <path d="M0 0L20 0L20 20L0 20L0 0Z" fill-rule="nonzero"
                transform="matrix(1 0 0 1 10 10)" />
        </clipPath>
    </defs>
    <g clip-path="url(#clipPath3303391555)">
        <path
            d="M12.5003 6.875C11.6972 6.875 10.9206 6.51641 10.3128 5.86563C9.72178 5.23086 9.36084 4.38438 9.29717 3.48281C9.2292 2.52109 9.52256 1.63672 10.123 0.992188C10.7233 0.347657 11.5628 0 12.5003 0C13.4312 0 14.273 0.353906 14.8714 0.996875C15.4757 1.64609 15.7698 2.52891 15.7019 3.48242C15.6366 4.38516 15.2761 5.23125 14.6862 5.86523C14.08 6.51641 13.3038 6.875 12.5003 6.875ZM17.6499 13.75L7.35108 13.75C7.18329 13.7509 7.02391 13.7147 6.87293 13.6415C6.72196 13.5683 6.59488 13.4655 6.4917 13.3332C6.3823 13.1898 6.30957 13.0298 6.27353 12.853C6.23748 12.6763 6.24172 12.5006 6.28623 12.3258C6.61514 11.0051 7.42999 9.90976 8.64248 9.15859C9.71866 8.49219 11.0886 8.125 12.5003 8.125C13.9398 8.125 15.2737 8.47656 16.3562 9.14258C17.5714 9.88984 18.3874 10.9914 18.7148 12.3281C18.7587 12.503 18.7625 12.6788 18.726 12.8554C18.6896 13.032 18.6166 13.1919 18.5069 13.3352C18.4039 13.4669 18.2771 13.5691 18.1265 13.642C17.976 13.7149 17.8171 13.7509 17.6499 13.75ZM5.11749 7.03125C3.74288 7.03125 2.53428 5.75313 2.42217 4.18242C2.3667 3.37773 2.61749 2.63359 3.1253 2.08789C3.62764 1.54766 4.33624 1.25 5.11749 1.25C5.89874 1.25 6.60186 1.54922 7.10694 2.09258C7.61866 2.64258 7.86866 3.38516 7.81006 4.1832C7.69795 5.75352 6.48975 7.03125 5.11749 7.03125ZM7.68233 8.25977C6.99522 7.92383 6.10342 7.75586 5.11788 7.75586C3.96709 7.75586 2.84952 8.05586 1.97061 8.60039C0.974126 9.21875 0.303814 10.1191 0.0331106 11.2063C-0.00701755 11.3646 -0.010671 11.5239 0.0221504 11.6839C0.0549717 11.844 0.120995 11.9889 0.22022 12.1187C0.314407 12.2397 0.430431 12.3336 0.568293 12.4006C0.706154 12.4676 0.851718 12.5007 1.00499 12.5L5.34092 12.5C5.41644 12.5 5.48318 12.4758 5.54114 12.4274C5.59911 12.379 5.63485 12.3177 5.64834 12.2434C5.65264 12.2187 5.65811 12.1941 5.66436 12.1699C5.99561 10.8395 6.77178 9.71523 7.91866 8.8957C8.01024 8.82968 8.05338 8.74029 8.04808 8.62751C8.04277 8.51473 7.99143 8.42978 7.89405 8.37265C7.83272 8.33672 7.76241 8.29883 7.68233 8.25977Z"
            fill-rule="nonzero" transform="matrix(1 0 0 1 10.6247 13.125)"
            fill="rgb(255, 255, 255)" />
    </g>
</svg>