<?xml version="1.0" encoding="utf-8" ?>
<svg xmlns="http://www.w3.org/2000/svg" width="40" height="40" viewBox="0 0 40 40">
    <rect width="40" height="40" rx="8" ry="8" transform="matrix(1 0 0 1 0 0)" fill="rgb(37, 99, 235)"/>
    <defs>
        <clipPath id="clipPath2813378461">
            <path d="M0 0L20 0L20 20L0 20L0 0Z" fill-rule="nonzero" transform="matrix(1 0 0 1 10 10)"/>
        </clipPath>
    </defs>
    <g clip-path="url(#clipPath2813378461)">
        <path d="M1.04619 1.78814e-06C0.703438 0.000189741 0.427807 0.136299 0.219296 0.40833C0.0107849 0.680361 -0.049034 0.98189 0.0398397 1.31292C0.128714 1.64394 0.331512 1.87497 0.648234 2.00598C0.964954 2.137 1.27169 2.11675 1.56845 1.94525C1.8652 1.77374 2.03588 1.51807 2.08047 1.17823C2.12507 0.838398 2.02614 0.547347 1.78369 0.30508C1.68598 0.207172 1.57321 0.131781 1.4454 0.0789076C1.31758 0.0260339 1.18451 -0.000268022 1.04619 1.78814e-06Z" fill-rule="nonzero" transform="matrix(1 0 0 1 21.7995 16.1246)" fill="rgb(255, 255, 255)"/>
        <path d="M17.4015 0.70538C17.4014 0.704798 17.4013 0.704212 17.4013 0.703622C17.4013 0.703033 17.4014 0.702447 17.4015 0.701865C17.3678 0.55418 17.2977 0.426484 17.1912 0.318777C17.0846 0.211069 16.9577 0.139546 16.8104 0.104208C15.6464 -0.179776 13.8151 0.122958 11.7858 0.935459C9.74052 1.75577 7.82412 2.96671 6.5288 4.26437C6.32121 4.47085 6.12111 4.68436 5.92849 4.90487C5.73587 5.12539 5.55121 5.35238 5.37451 5.58585C4.50224 5.54679 3.73388 5.67101 3.08662 5.95343C0.831148 6.94601 0.187008 9.48624 0.0155232 10.5292C-0.0376864 10.847 0.0458953 11.1234 0.266268 11.3584C0.486641 11.5935 0.757096 11.6947 1.07763 11.662L1.08271 11.662L3.59521 11.3878C3.59834 11.4198 3.60185 11.4491 3.60459 11.4761C3.62072 11.6292 3.66197 11.7751 3.72833 11.914C3.79469 12.0529 3.88235 12.1767 3.9913 12.2855L5.21748 13.5124C5.32604 13.6215 5.44975 13.7093 5.58859 13.7757C5.72743 13.8422 5.87339 13.8834 6.02646 13.8995L6.11044 13.9085L5.83701 16.4179L5.83701 16.423C5.80743 16.709 5.88838 16.9592 6.07986 17.1737C6.27133 17.3882 6.51082 17.497 6.79834 17.4999C6.82549 17.4999 6.8526 17.4988 6.87967 17.4966C6.90673 17.4944 6.93366 17.4911 6.96044 17.4866C8.00927 17.3179 10.5483 16.6816 11.5382 14.414C11.8183 13.771 11.9421 13.0058 11.9073 12.1351C12.1418 11.9588 12.3698 11.7743 12.5911 11.5817C12.8124 11.389 13.0265 11.1887 13.2335 10.9808C14.5394 9.68155 15.7542 7.78077 16.5659 5.76515C17.3741 3.7589 17.6784 1.91397 17.4015 0.70538ZM13.2194 7.53663C12.7713 7.98524 12.2302 8.20965 11.5961 8.20987C10.962 8.21009 10.4207 7.98605 9.97225 7.53776C9.5238 7.08946 9.29957 6.54827 9.29957 5.91417C9.29957 5.28007 9.5238 4.73888 9.97225 4.29058C10.4207 3.84228 10.962 3.61825 11.5961 3.61847C12.2302 3.61869 12.7713 3.8431 13.2194 4.29171C13.6723 4.73774 13.8987 5.27856 13.8987 5.91417C13.8987 6.54978 13.6723 7.0906 13.2194 7.53663Z" fill-rule="nonzero" transform="matrix(1 0 0 1 11.2485 11.2501)" fill="rgb(255, 255, 255)"/>
        <path d="M4.45063 1.97132C4.37505 1.96194 4.30026 1.96623 4.22625 1.9842C4.15225 2.00216 4.08381 2.03263 4.02094 2.07561C3.77133 2.24632 3.52055 2.41507 3.26743 2.57952C2.75532 2.91233 2.14282 2.32796 2.44711 1.79827L2.92172 0.977958C2.99102 0.876589 3.02729 0.76453 3.03054 0.641782C3.03379 0.519034 3.0035 0.405213 2.93966 0.300319C2.87582 0.195427 2.78864 0.116225 2.67813 0.0627136C2.56761 0.00920375 2.45141 -0.0100636 2.32954 0.00491142C2.06616 0.0382185 1.81527 0.113282 1.57688 0.230103C1.33849 0.346924 1.12544 0.499204 0.937739 0.686942C0.79477 0.830302 0.360005 1.26546 0.12602 2.92366C0.09272 3.16181 0.065581 3.40066 0.0446035 3.6402C0.0236259 3.87975 0.00883783 4.11968 0.000239164 4.35999C-0.00426486 4.5357 0.0548345 4.68647 0.177537 4.81232C0.30024 4.93817 0.449474 5.00106 0.625239 5.001L0.640864 5.001C0.88136 4.99249 1.12148 4.97781 1.36122 4.95696C1.60096 4.93612 1.84001 4.90913 2.07836 4.876C3.73735 4.64163 4.1725 4.20647 4.31547 4.0635C4.50408 3.87572 4.65661 3.66217 4.77306 3.42284C4.88951 3.18352 4.96341 2.93171 4.99477 2.66741C5.01568 2.49619 4.97302 2.34263 4.86679 2.20673C4.76055 2.07083 4.62183 1.99236 4.45063 1.97132Z" fill-rule="nonzero" transform="matrix(1 0 0 1 11.8748 23.124)" fill="rgb(255, 255, 255)"/>
    </g>
</svg>