<?xml version="1.0" encoding="utf-8" ?>
<svg xmlns="http://www.w3.org/2000/svg" width="40" height="40" viewBox="0 0 40 40">
    <path
        d="M20 0C8.9543 0 0 8.9543 0 20L0 20.03C0 31.0757 8.92431 40 19.97 40L20 40C31.0457 40 40 31.0757 40 20.03L40 20C40 8.9543 31.0757 0 20.03 0L20 0Z"
        fill-rule="nonzero" transform="matrix(1 0 0 1 0 0)" fill="rgb(254, 226, 226)" />
    <defs>
        <clipPath id="clipPath4881664174">
            <path d="M0 0L20 0L20 20L0 20L0 0Z" fill-rule="nonzero"
                transform="matrix(1 0 0 1 10 10)" />
        </clipPath>
    </defs>
    <g clip-path="url(#clipPath4881664174)">
        <path
            d="M-0.662913 4.96209L4.96209 -0.662913Q5.09395 -0.794774 5.26623 -0.866137Q5.43852 -0.9375 5.625 -0.9375Q5.81148 -0.9375 5.98377 -0.866137Q6.15605 -0.794774 6.28791 -0.662913L11.9129 4.96209C12.279 5.3282 12.279 5.9218 11.9129 6.28791C11.5468 6.65403 10.9532 6.65403 10.5871 6.28791L6.5625 2.26332L6.5625 12.1875C6.5625 12.7053 6.14276 13.125 5.625 13.125C5.10724 13.125 4.6875 12.7053 4.6875 12.1875L4.6875 2.26332L0.662913 6.28791C0.296799 6.65403 -0.296799 6.65403 -0.662913 6.28791C-1.02903 5.9218 -1.02903 5.3282 -0.662913 4.96209Z"
            fill-rule="evenodd" transform="matrix(1 0 0 1 14.375 13.9062)"
            fill="rgb(220, 38, 38)" />
    </g>
</svg>
