<?xml version="1.0" encoding="utf-8" ?>
<svg xmlns="http://www.w3.org/2000/svg" xmlns:xlink="http://www.w3.org/1999/xlink" width="24" height="24" viewBox="0 0 24 24">
    <defs>
        <clipPath id="clipPath5400251174">
            <path d="M0 0L24 0L24 24L0 24L0 0Z" fill-rule="nonzero" transform="matrix(1 0 0 1 0 0)"/>
        </clipPath>
    </defs>
    <g clip-path="url(#clipPath5400251174)">
        <path d="M2.23517e-08 5.25112L2.23517e-08 4.50112C2.23517e-08 3.87979 0.503672 3.37612 1.125 3.37612L18 3.37612L18 1.12612C18 0.124544 19.214 -0.375847 19.9205 0.330606L23.6705 4.08061C24.1098 4.51997 24.1098 5.23228 23.6705 5.67159L19.9205 9.42159C19.2167 10.1253 18 9.63187 18 8.62612L18 6.37612L1.125 6.37612C0.503672 6.37612 2.23517e-08 5.87245 2.23517e-08 5.25112ZM22.875 12.3761L6 12.3761L6 10.1261C6 9.12703 4.78772 8.62237 4.07948 9.33061L0.329484 13.0806C-0.109828 13.52 -0.109828 14.2323 0.329484 14.6716L4.07948 18.4216C4.78392 19.126 6 18.631 6 17.6261L6 15.3761L22.875 15.3761C23.4963 15.3761 24 14.8724 24 14.2511L24 13.5011C24 12.8798 23.4963 12.3761 22.875 12.3761Z" fill-rule="nonzero" transform="matrix(1 0 0 1 -2.23517e-08 2.62388)" fill="rgb(45, 91, 255)"/>
    </g>
</svg>