<?xml version="1.0" encoding="utf-8" ?>
<svg xmlns="http://www.w3.org/2000/svg" width="40"
    height="40" viewBox="0 0 40 40">
    <rect width="40" height="40" rx="8" ry="8" transform="matrix(1 0 0 1 0 0)"
        fill="rgb(37, 99, 235)" />
    <defs>
        <clipPath id="clipPath2420890445">
            <path d="M0 0L20 0L20 20L0 20L0 0Z" fill-rule="nonzero"
                transform="matrix(1 0 0 1 10 10)" />
        </clipPath>
    </defs>
    <g clip-path="url(#clipPath2420890445)">
        <path
            d="M7.68306 -0.441942C7.43898 -0.197866 7.43898 0.197866 7.68306 0.441942L10.9911 3.75L0 3.75C-0.345175 3.75 -0.625 4.02983 -0.625 4.375C-0.625 4.72017 -0.345175 5 0 5L10.9911 5L7.68306 8.30806C7.43898 8.55213 7.43898 8.94787 7.68306 9.19194C7.92713 9.43602 8.32287 9.43602 8.56694 9.19194L12.9419 4.81694Q12.9855 4.77341 13.0197 4.72223Q13.0539 4.67105 13.0774 4.61418Q13.101 4.55731 13.113 4.49693Q13.125 4.43656 13.125 4.375Q13.125 4.31344 13.113 4.25307Q13.101 4.19269 13.0774 4.13582Q13.0539 4.07895 13.0197 4.02777Q12.9855 3.97659 12.9419 3.93306L8.56694 -0.441942C8.32287 -0.686017 7.92713 -0.686017 7.68306 -0.441942ZM3.93306 7.05806C4.17713 6.81398 4.57287 6.81398 4.81694 7.05806C5.06102 7.30213 5.06102 7.69787 4.81694 7.94194L1.50888 11.25L12.5 11.25C12.8452 11.25 13.125 11.5298 13.125 11.875C13.125 12.2202 12.8452 12.5 12.5 12.5L1.50888 12.5L4.81694 15.8081C5.06102 16.0521 5.06102 16.4479 4.81694 16.6919C4.57287 16.936 4.17713 16.936 3.93306 16.6919L-0.441942 12.3169Q-0.485469 12.2734 -0.519668 12.2222Q-0.553868 12.171 -0.577425 12.1142Q-0.600982 12.0573 -0.612991 11.9969Q-0.625 11.9366 -0.625 11.875Q-0.625 11.8134 -0.612991 11.7531Q-0.600982 11.6927 -0.577425 11.6358Q-0.553868 11.579 -0.519668 11.5278Q-0.485469 11.4766 -0.441942 11.4331L3.93306 7.05806Z"
            fill-rule="evenodd" transform="matrix(1 0 0 1 13.75 11.875)"
            fill="rgb(255, 255, 255)" />
    </g>
</svg>
