<?xml version="1.0" encoding="utf-8" ?>
<svg xmlns="http://www.w3.org/2000/svg" width="36" height="36" viewBox="0 0 36 36">
    <rect width="36" height="36" rx="8" ry="8" transform="matrix(1 0 0 1 0 0)"
        fill="rgb(255, 255, 255)" />
    <defs>
        <clipPath id="clipPath7725956315">
            <path d="M0 0L20 0L20 20L0 20L0 0Z" fill-rule="nonzero"
                transform="matrix(1 0 0 1 8 8)" />
        </clipPath>
    </defs>
    <g clip-path="url(#clipPath7725956315)">
        <path
            d="M14.8438 11.25L11.875 11.25C11.5298 11.25 11.25 11.5298 11.25 11.875C11.25 12.2202 11.5298 12.5 11.875 12.5L14.8438 12.5Q15.7478 12.5 16.5402 12.2621Q17.3673 12.0138 17.9863 11.5322Q18.6478 11.0176 19.0033 10.2905Q19.375 9.53009 19.375 8.60938Q19.375 7.68719 18.9475 6.91251Q18.5654 6.22026 17.8776 5.70931Q17.2696 5.25768 16.493 4.99767Q16.0268 4.84159 15.5524 4.77107Q15.3769 3.7327 14.9372 2.83269Q14.4092 1.75213 13.5485 0.964719Q12.7044 0.192578 11.6305 -0.216368Q10.5575 -0.625 9.375 -0.625Q7.26437 -0.625 5.68877 0.626693Q5.00071 1.1733 4.50102 1.90508Q4.14637 2.42445 3.91815 2.98937Q3.15882 3.1051 2.46929 3.38261Q1.57023 3.74445 0.895283 4.33947Q0.175945 4.97363 -0.212401 5.80613Q-0.625 6.69062 -0.625 7.71875Q-0.625 8.75526 -0.195292 9.66532Q0.215577 10.5355 0.968429 11.1857Q1.70068 11.8181 2.65839 12.158Q3.62197 12.5 4.6875 12.5L6.875 12.5C7.22017 12.5 7.5 12.2202 7.5 11.875C7.5 11.5298 7.22017 11.25 6.875 11.25L4.6875 11.25Q3.83721 11.25 3.07647 10.98Q2.34003 10.7186 1.78548 10.2397Q1.23291 9.76245 0.935038 9.1316Q0.625 8.47499 0.625 7.71875Q0.625 6.24414 1.7219 5.27713Q2.23594 4.82396 2.93599 4.54222Q3.6359 4.26053 4.43411 4.1847Q4.52543 4.17602 4.6104 4.14147Q4.69537 4.10693 4.76684 4.04942Q4.8383 3.99191 4.89023 3.91629Q4.94215 3.84068 4.97016 3.75333Q5.16277 3.15262 5.53331 2.60997Q5.92634 2.0344 6.46631 1.60544Q7.70046 0.625 9.375 0.625Q10.3275 0.625 11.1856 0.951793Q12.0366 1.27587 12.7048 1.88704Q13.3903 2.51418 13.814 3.3814Q14.2624 4.29921 14.3784 5.40872Q14.3842 5.46392 14.3996 5.51724Q14.415 5.57056 14.4395 5.62034Q14.4641 5.67011 14.497 5.71478Q14.53 5.75944 14.5703 5.7976Q14.6106 5.83576 14.657 5.86622Q14.7034 5.89668 14.7544 5.91849Q14.8055 5.9403 14.8596 5.95277Q14.9136 5.96524 14.9691 5.96798Q15.5381 5.99617 16.0961 6.183Q16.684 6.37981 17.1322 6.71276Q18.125 7.45024 18.125 8.60938Q18.125 9.84057 17.2188 10.5456Q16.7841 10.8838 16.1808 11.0649Q15.5642 11.25 14.8438 11.25Z"
            fill-rule="evenodd" transform="matrix(1 0 0 1 8.625 10.4918)"
            fill="rgb(43, 107, 230)" />
        <path
            d="M4.55806 2.94194L3.125 1.50888L3.125 10.0164C3.125 10.3616 2.84518 10.6414 2.5 10.6414C2.15482 10.6414 1.875 10.3616 1.875 10.0164L1.875 1.50888L0.441942 2.94194C0.197866 3.18602 -0.197866 3.18602 -0.441942 2.94194C-0.686017 2.69787 -0.686017 2.30213 -0.441942 2.05806L2.05806 -0.441942Q2.10159 -0.485469 2.15277 -0.519668Q2.20395 -0.553868 2.26082 -0.577425Q2.31769 -0.600982 2.37807 -0.612991Q2.43844 -0.625 2.5 -0.625Q2.56156 -0.625 2.62193 -0.612991Q2.68231 -0.600982 2.73918 -0.577425Q2.79605 -0.553868 2.84723 -0.519668Q2.89841 -0.485469 2.94194 -0.441942L5.44194 2.05806C5.68602 2.30213 5.68602 2.69787 5.44194 2.94194C5.19787 3.18602 4.80213 3.18602 4.55806 2.94194Z"
            fill-rule="evenodd" transform="matrix(1 0 0 1 15.5 15.4918)" fill="rgb(43, 107, 230)" />
    </g>
</svg>