<?xml version="1.0" encoding="utf-8" ?>
<svg xmlns="http://www.w3.org/2000/svg" xmlns:xlink="http://www.w3.org/1999/xlink" width="40" height="40" viewBox="0 0 40 40">
    <rect width="40" height="40" rx="8" ry="8" transform="matrix(1 0 0 1 0 0)" fill="rgb(37, 99, 235)"/>
    <defs>
        <clipPath id="clipPath4303030655">
            <path d="M0 0L20 0L20 20L0 20L0 0Z" fill-rule="nonzero" transform="matrix(1 0 0 1 10 10)"/>
        </clipPath>
    </defs>
    <g clip-path="url(#clipPath4303030655)">
        <path d="M2.5 2.19139L15 2.19139C15.073 2.19136 15.1459 2.19366 15.2188 2.19828C15.2917 2.20291 15.3643 2.20986 15.4367 2.21913C15.3332 1.49231 14.9831 0.915049 14.3864 0.487334C13.7897 0.0596187 13.1305 -0.0865539 12.409 0.0488159L2.12891 1.80389L2.11719 1.80389C1.79455 1.86559 1.49465 1.98461 1.2175 2.16094C0.940351 2.33727 0.705481 2.55849 0.512891 2.8246C0.803046 2.61822 1.11775 2.46097 1.45701 2.35286C1.79627 2.24476 2.14393 2.19093 2.5 2.19139ZM15 3.12889L2.5 3.12889C1.80996 3.12965 1.22097 3.37399 0.733032 3.86193C0.245098 4.34986 0.000753552 4.93885 0 5.62889L0 13.1289C0.000753502 13.8189 0.245098 14.4079 0.733033 14.8959C1.22097 15.3838 1.80996 15.6281 2.5 15.6289L15 15.6289C15.69 15.6281 16.279 15.3838 16.767 14.8959C17.2549 14.4079 17.4992 13.8189 17.5 13.1289L17.5 5.62889C17.4992 4.93885 17.2549 4.34986 16.767 3.86193C16.279 3.37399 15.69 3.12965 15 3.12889ZM13.1445 10.6289C12.7994 10.6289 12.5047 10.5069 12.2606 10.2628C12.0166 10.0187 11.8945 9.72407 11.8945 9.37889C11.8945 9.03372 12.0166 8.73909 12.2606 8.49501C12.5047 8.25093 12.7994 8.12889 13.1445 8.12889C13.4897 8.12889 13.7843 8.25093 14.0284 8.49501C14.2725 8.73909 14.3945 9.03372 14.3945 9.37889C14.3945 9.72407 14.2725 10.0187 14.0284 10.2628C13.7843 10.5069 13.4897 10.6289 13.1445 10.6289Z" fill-rule="nonzero" transform="matrix(1 0 0 1 11.2305 11.8711)" fill="rgb(255, 255, 255)"/>
        <path d="M0 6.71875L0 2.83203C0 1.98555 0.46875 0.566406 2.0957 0.258984C3.47656 0 4.84375 0 4.84375 0C4.84375 0 5.74219 0.625 5 0.625C4.25781 0.625 4.27734 1.58203 5 1.58203C5.72266 1.58203 5 2.5 5 2.5L2.08984 5.80078L0 6.71875Z" fill-rule="nonzero" transform="matrix(1 0 0 1 11.25 13.418)" fill="rgb(255, 255, 255)"/>
    </g>
</svg>